PathFileType	4	(X/Y/Z)	Patient4_TMGait_0pt4_03_left_32.trc.trc
DataRate	CameraRate	NumFrames	NumMarkers	Units	OrigDataRate	OrigDataStartFrame	OrigNumFrames
74.074074074074	74.074074074074	5	33	mm	74.074074074074	71	       141
Frame#	Time	Sacral			L.Shoulder			Chest			R.Shoulder			Neck			R.ASIS			L.ASIS			R.Thigh.Superior			R.Thigh.Lateral			R.Thigh.Inferior			R.Patella			L.Thigh.Superior			L.Thigh.Lateral			L.Thigh.Inferior			L.Patella			L.Shank.Superior			L.Shank.Lateral			L.Shank.Inferior			R.Shank.Superior			R.Shank.Lateral			R.Shank.Inferior			R.Heel			R.Midfoot.Superior			R.Midfoot.Lateral			R.Toe			L.Heel			L.Midfoot.Lateral			L.Midfoot.Superior			L.Toe			L.Elbow			L.Wrist			R.Elbow			R.Wrist			
		X1	Y1	Z1	X2	Y2	Z2	X3	Y3	Z3	X4	Y4	Z4	X5	Y5	Z5	X6	Y6	Z6	X7	Y7	Z7	X8	Y8	Z8	X9	Y9	Z9	X10	Y10	Z10	X11	Y11	Z11	X12	Y12	Z12	X13	Y13	Z13	X14	Y14	Z14	X15	Y15	Z15	X16	Y16	Z16	X17	Y17	Z17	X18	Y18	Z18	X19	Y19	Z19	X20	Y20	Z20	X21	Y21	Z21	X22	Y22	Z22	X23	Y23	Z23	X24	Y24	Z24	X25	Y25	Z25	X26	Y26	Z26	X27	Y27	Z27	X28	Y28	Z28	X29	Y29	Z29	X30	Y30	Z30	X31	Y31	Z31	X32	Y32	Z32	X33	Y33	Z33	

71	43.155000000000	852.123949431186	1010.900648244654	403.288106199230	1065.346075794625	1431.580623801788	230.561342473701	1145.134897393231	1364.239372608619	404.137880712547	1042.680695410377	1441.730678499149	565.619561633179	1023.890258814488	1496.373091003740	383.852787964058	1068.006598182972	945.575034602223	545.799396707540	1079.880009872151	959.748531106623	270.060607720748	1124.145497982667	755.731140844042	526.816895037169	1064.749919723222	644.548173053297	600.919547096857	1148.779872911153	594.357970949161	522.949217908842	1173.367611417271	517.769824720371	541.614976901879	1089.337211020420	735.045896897413	300.566535307094	981.852699038003	635.701026204050	229.730068348568	1044.917404454691	545.778675230186	295.566491275986	1032.655656641331	480.042943668030	303.421122939017	1002.990856571059	411.986238582917	293.921584616680	906.327871468230	304.469338835829	241.259617818728	946.280311290859	189.226490398144	312.562635829066	1161.246739532074	433.292396611069	556.616331236998	1112.427833489312	320.051427302222	624.043756855996	1186.670125742695	235.383117247767	575.823961565081	1103.961815424347	45.199201965772	552.283320962818	1265.342544215811	121.805697656801	591.151146097460	1188.608165294678	45.762179420681	625.840862502337	1390.829745274920	88.237191576026	616.655890995633	812.416298298405	39.011048166079	358.245619475905	882.039068739729	35.036366589618	274.002542531392	967.238738566251	94.536301454136	298.937834990133	1094.076521768584	41.733853017765	262.884669518728	1120.391858146068	1107.349394536797	69.825408196138	1370.288983097536	1034.202563312111	60.580307225211	907.633531964952	1121.242595594389	672.826344929119	904.853487951237	858.751451091002	672.191432524166	
72	43.168500000000	853.672448741816	1009.714105918493	405.860983724352	1065.307812075727	1430.747167356610	232.973779178477	1145.563909121563	1363.792633895259	406.488658391656	1043.007176241627	1440.965695586435	568.083084580147	1023.872660452048	1495.495266421023	386.259340293558	1069.674077671962	944.299477713696	548.029597727921	1081.370807614936	959.093526710367	272.341567984380	1124.709714829025	753.462996414126	528.904502451203	1063.360486242094	642.046994812217	601.358101297387	1147.527750534425	592.187718133195	523.604025128896	1170.872652143946	515.625659579698	541.512832350932	1089.633891075521	733.823712955465	302.403654522502	981.403576176486	635.219261041653	231.368162726804	1043.755338008638	544.744770646855	297.011430648105	1031.139453179410	478.853753750372	304.607696353861	1000.723457265360	411.133187789092	294.941341393258	902.880626537734	304.653284792456	241.989512410228	941.827194819864	188.803043391351	312.904525690587	1158.641579938680	430.534940541519	556.076998241350	1108.633592163880	317.102075179540	621.973946363225	1182.878183603780	232.573643012753	573.829782296432	1099.466507416963	44.089038415624	548.171217214207	1260.959621208468	118.596627860248	589.047599333509	1183.050694703921	43.910674523341	622.785067524619	1385.651383813521	83.647186053434	615.746753514807	806.981079868956	39.006166226008	358.203054725395	876.611389897571	34.997515574954	274.008511846165	961.817765598167	94.471987375043	298.993546405428	1088.637494895279	41.602417433748	262.861477941665	1120.463305986911	1106.166940893193	72.757604667956	1370.296747921259	1032.822152940975	64.215531246116	908.594605595105	1120.431607221199	675.436184699329	907.421719248032	857.800660801545	674.008108803879	
73	43.182000000000	855.309492745612	1008.394183551244	408.715502110834	1065.071023539083	1429.895645069367	235.586449054561	1145.932383413372	1363.377965189359	409.003502337000	1043.284594353395	1440.132588315870	570.780507197066	1023.732653406368	1494.581939453164	388.899800309564	1071.608769240438	943.035850463274	550.384556743291	1082.900575523188	958.424878126728	274.753930539939	1126.238671600086	751.630670042874	530.992248196321	1062.915933257652	639.716092514367	601.591543511646	1147.501813816896	590.458940336440	524.273360332901	1169.446605103528	513.457697782323	541.255723234034	1090.166399941511	732.593802780877	304.247407331656	981.229213557068	634.669043419400	233.155208955180	1043.013629258435	543.658055459691	298.516963030489	1030.117647054721	477.526273138067	305.863073554146	998.830375238931	410.177424647083	296.040832717058	899.648629811063	304.865542703703	242.826596560152	937.486565353478	188.343934696080	313.285859167176	1156.565235010243	427.528152648185	555.279593413611	1104.658650592882	314.346287243157	619.845363277057	1177.935065975325	229.358276525932	571.584058532484	1092.116800766142	43.423717680853	544.264017127174	1254.215247113307	114.770493156080	586.555573486655	1174.754280202643	42.165383985870	619.831917204012	1377.991955979160	77.715473663676	614.481453947259	801.538469139022	39.027936150704	358.152903400816	871.191364456722	34.972124560915	274.024672830327	956.410989453826	94.421113412031	299.055887850626	1083.204409252607	41.446938042797	262.826819725777	1120.079253904285	1104.797690235811	76.006218510537	1369.662121301317	1030.394238094777	67.986968507430	910.399168055115	1119.134986857556	678.408544083567	911.466727656014	856.395740310989	676.172213812180	
74	43.195500000000	857.013399368742	1006.997434874227	411.812029988920	1064.679479982093	1429.057092975182	238.395387072035	1146.260143699918	1363.014597380525	411.683714152761	1043.533099491554	1439.267755547901	573.705364956014	1023.505609656488	1493.672225804309	391.766014597062	1073.781019265210	941.831140290383	552.850701732452	1084.453837507930	957.775256444158	277.282666760778	1128.582747849892	750.170185509076	533.084177588122	1063.290147883032	637.613097094724	601.728906528779	1148.490772978458	589.121835258959	524.985169555341	1168.913414449743	511.318759150647	540.865045554348	1090.928039022875	731.396017413112	306.059069778683	981.313057030765	634.071924777146	235.077685722686	1042.708556781300	542.544221659466	300.049221310318	1029.618887505367	476.077731899773	307.148675231908	997.321820082054	409.136769160434	297.201230649280	896.641450925951	305.138008235896	243.767677080380	933.267181124631	187.878535852015	313.694217748608	1155.043909680874	424.432139726713	554.331553312054	1100.877080870721	311.831496119461	617.891882764506	1172.401085299223	225.929371116685	569.264886920928	1082.933911062946	43.026659293311	540.842736665209	1245.976173046860	110.711457126893	583.880459658277	1164.816102584003	40.592286719136	617.199824285937	1368.855968244889	71.181859141133	612.961381094136	796.091807489241	39.130111567854	358.090927393555	865.784424892017	34.984615913538	274.050112115998	951.039044660997	94.396339802701	299.112597178421	1077.783336986079	41.261413863351	262.776932494989	1119.220548629435	1103.260058283159	79.571993036824	1368.353551701628	1026.946401865640	71.856550624657	913.004249755398	1117.422524818778	681.729836790675	916.946137549446	854.625440801344	678.712939064015	
75	43.209000000000	858.762381942273	1005.594826403933	415.107186282362	1064.177404692822	1428.277431985292	241.390565652448	1146.566421348550	1362.732875908728	414.522597783132	1043.776949790876	1438.420427440093	576.844054301950	1023.228300058515	1492.817416042020	394.844143825858	1076.147410366126	940.743057637298	555.411912986553	1086.019377581418	957.188801838498	279.912912614818	1131.537019311695	749.023264302026	535.172613504579	1064.351772710112	635.808658344735	601.896858908688	1150.241311762223	588.133909621689	525.753288748013	1169.073245752538	509.283040003371	540.406728624369	1091.917428169457	730.284037924021	307.815117449154	981.649487323077	633.459546754288	237.121430476492	1042.868954145506	541.441569847714	301.576299738729	1029.680461583107	474.537403877167	308.420768617982	996.215342001754	408.040076346911	298.398870377343	893.878613853909	305.517217501783	244.804779976208	929.187588188529	187.450869803648	314.110741361183	1154.065081943306	421.430579803921	553.371599889514	1097.596799698199	309.624146808132	616.322425523998	1166.799550019019	222.521555323244	567.058954854251	1072.932016806587	42.783808889032	538.095743419221	1237.087190328707	106.811422093532	581.256569302760	1154.283397853433	39.262708915660	615.047686196745	1359.185598738408	64.761458684536	611.340145699227	790.650136930110	39.391736674812	358.011889116659	860.399109520664	35.071113187801	274.081934113346	945.732301396592	94.413693938582	299.145626451358	1072.382540837168	41.040590240491	262.708335151367	1117.873947245057	1101.587517150797	83.461649114503	1366.323213189260	1022.500446727689	75.782764499334	916.364056648880	1115.389758371873	685.376422795816	923.813250648255	852.606411252649	681.651618508380	
